<svg xmlns="http://www.w3.org/2000/svg" viewBox="0 0 800 1000">
  <defs>
    <linearGradient id="g4" x1="0" y1="0" x2="1" y2="1">
      <stop offset="0" stop-color="#9fc5d8"/>
      <stop offset="1" stop-color="#23506b"/>
    </linearGradient>
  </defs>
  <rect width="800" height="1000" fill="url(#g4)"/>
  <path d="M0 600 Q 150 480 320 560 Q 420 610 380 680 Q 300 760 180 700 Q 60 650 0 700 Z" fill="#eef7fa" opacity=".85"/>
  <path d="M320 560 Q 500 470 680 580 Q 780 650 720 740 L 800 1000 L 0 1000 L 0 700 Q 60 650 180 700 Q 300 760 380 680 Q 420 610 320 560 Z" fill="#4b7f9c" opacity=".6"/>
  <circle cx="250" cy="620" r="14" fill="#ffffff" opacity=".9"/>
  <circle cx="300" cy="580" r="9" fill="#ffffff" opacity=".8"/>
  <circle cx="210" cy="660" r="7" fill="#ffffff" opacity=".7"/>
</svg>
